<svg id="visual" viewBox="0 0 960 540" width="960" height="540" xmlns="http://www.w3.org/2000/svg" xmlns:xlink="http://www.w3.org/1999/xlink" version="1.1"><g transform="translate(910.9273176970081 -60.02684714280636)"><path d="M266.7 -302C374.3 -227.4 510.2 -170.7 557 -73.3C603.9 24.1 561.8 162 492.6 286.7C423.4 411.4 327.1 522.9 207 565C86.9 607 -57.1 579.8 -145 502.6C-232.8 425.4 -264.5 298.2 -329 188.8C-393.4 79.4 -490.7 -12.1 -477.5 -83.7C-464.3 -155.3 -340.6 -206.9 -242.6 -283.1C-144.6 -359.4 -72.3 -460.2 3.6 -464.5C79.5 -468.7 159 -376.5 266.7 -302" fill="#3E2BD2"></path></g></svg>