<svg width="1929" height="1077" viewBox="0 0 1929 1077" fill="none" xmlns="http://www.w3.org/2000/svg">
<path d="M330.073 1077L320.428 1056.9C310.783 1036.97 291.493 996.763 288.278 957.094C285.063 917.245 297.923 877.755 297.923 837.906C297.923 798.236 285.063 758.029 278.633 718C272.203 677.971 272.203 637.763 288.278 598.094C304.353 558.245 336.503 518.755 333.288 478.906C330.073 439.236 291.493 399.029 275.418 359C259.343 318.971 265.773 278.763 278.633 239.094C291.493 199.245 310.783 159.755 307.568 119.906C304.353 80.2365 278.633 40.0285 265.773 20.104L252.913 0H6.10352e-05V20.104C6.10352e-05 40.0285 6.10352e-05 80.2365 6.10352e-05 119.906C6.10352e-05 159.755 6.10352e-05 199.245 6.10352e-05 239.094C6.10352e-05 278.763 6.10352e-05 318.971 6.10352e-05 359C6.10352e-05 399.029 6.10352e-05 439.236 6.10352e-05 478.906C6.10352e-05 518.755 6.10352e-05 558.245 6.10352e-05 598.094C6.10352e-05 637.763 6.10352e-05 677.971 6.10352e-05 718C6.10352e-05 758.029 6.10352e-05 798.236 6.10352e-05 837.906C6.10352e-05 877.755 6.10352e-05 917.245 6.10352e-05 957.094C6.10352e-05 996.763 6.10352e-05 1036.97 6.10352e-05 1056.9V1077H330.073Z" fill="#3E2BD2"/>
<path d="M465.104 1077L458.674 1056.9C452.244 1036.97 439.384 996.763 432.954 957.094C426.524 917.245 426.524 877.755 423.309 837.906C420.094 798.236 413.664 758.029 410.449 718C407.234 677.971 407.234 637.763 420.094 598.094C432.954 558.245 458.674 518.755 458.674 478.906C458.674 439.236 432.954 399.029 420.094 359C407.234 318.971 407.234 278.763 416.879 239.094C426.524 199.245 445.814 159.755 449.029 119.906C452.244 80.2365 439.384 40.0285 432.954 20.104L426.524 0H250.77L263.63 20.104C276.49 40.0285 302.21 80.2365 305.425 119.906C308.64 159.755 289.35 199.245 276.49 239.094C263.63 278.763 257.2 318.971 273.275 359C289.35 399.029 327.93 439.236 331.145 478.906C334.36 518.755 302.21 558.245 286.135 598.094C270.06 637.763 270.06 677.971 276.49 718C282.92 758.029 295.78 798.236 295.78 837.906C295.78 877.755 282.92 917.245 286.135 957.094C289.35 996.763 308.64 1036.97 318.285 1056.9L327.93 1077H465.104Z" fill="#5143D9"/>
<path d="M947.354 1077L921.634 1056.9C895.914 1036.97 844.474 996.763 815.539 957.094C786.604 917.245 780.174 877.755 796.249 837.906C812.324 798.236 850.904 758.029 854.119 718C857.334 677.971 825.184 637.763 834.829 598.094C844.474 558.245 895.914 518.755 915.204 478.906C934.494 439.236 921.634 399.029 918.419 359C915.204 318.971 921.634 278.763 911.989 239.094C902.344 199.245 876.624 159.755 870.194 119.906C863.764 80.2365 876.624 40.0285 883.054 20.104L889.484 0H424.38L430.81 20.104C437.24 40.0285 450.1 80.2365 446.885 119.906C443.67 159.755 424.38 199.245 414.735 239.094C405.09 278.763 405.09 318.971 417.95 359C430.81 399.029 456.53 439.236 456.53 478.906C456.53 518.755 430.81 558.245 417.95 598.094C405.09 637.763 405.09 677.971 408.305 718C411.52 758.029 417.95 798.236 421.165 837.906C424.38 877.755 424.38 917.245 430.81 957.094C437.24 996.763 450.1 1036.97 456.53 1056.9L462.96 1077H947.354Z" fill="#6359DE"/>
<path d="M1082.38 1077L1066.31 1056.9C1050.23 1036.97 1018.08 996.763 995.578 957.094C973.073 917.245 960.213 877.755 969.858 837.906C979.503 798.236 1011.65 758.028 1014.87 718C1018.08 677.971 992.363 637.764 998.793 598.094C1005.22 558.245 1043.8 518.755 1059.88 478.906C1075.95 439.236 1069.52 399.028 1075.95 359C1082.38 318.971 1101.67 278.763 1092.03 239.094C1082.38 199.245 1043.8 159.755 1030.94 119.906C1018.08 80.2365 1030.94 40.0285 1037.37 20.104L1043.8 0H887.34L880.91 20.104C874.48 40.0285 861.62 80.2365 868.05 119.906C874.48 159.755 900.2 199.245 909.845 239.094C919.49 278.763 913.06 318.971 916.275 359C919.49 399.028 932.35 439.236 913.06 478.906C893.77 518.755 842.33 558.245 832.685 598.094C823.04 637.764 855.19 677.971 851.975 718C848.76 758.028 810.18 798.236 794.105 837.906C778.03 877.755 784.46 917.245 813.395 957.094C842.33 996.763 893.77 1036.97 919.49 1056.9L945.21 1077H1082.38Z" fill="#756EE3"/>
</svg>
