<svg xmlns="http://www.w3.org/2000/svg" version="1.1" xmlns:xlink="http://www.w3.org/1999/xlink" xmlns:svgjs="http://svgjs.com/svgjs" width="1080" height="560" preserveAspectRatio="none" viewBox="0 0 1080 560">
    <g mask="url(&quot;#SvgjsMask2256&quot;)" fill="none">
        <g transform="translate(0, 0)" stroke-linecap="round" stroke="url(#SvgjsLinearGradient2257)">
            <path d="M15 163.57 L15 396.43" stroke-width="18.75"></path>
            <path d="M40 183.69 L40 376.31" stroke-width="18.75"></path>
            <path d="M65 138.17 L65 421.83" stroke-width="18.75"></path>
            <path d="M90 139.72 L90 420.28" stroke-width="18.75"></path>
            <path d="M115 55.66 L115 504.35" stroke-width="18.75"></path>
            <path d="M140 65.22 L140 494.78" stroke-width="18.75"></path>
            <path d="M165 69.29 L165 490.71" stroke-width="18.75"></path>
            <path d="M190 37.91 L190 522.09" stroke-width="18.75"></path>
            <path d="M215 36.55 L215 523.45" stroke-width="18.75"></path>
            <path d="M240 251.19 L240 308.81" stroke-width="18.75"></path>
            <path d="M265 245.07 L265 314.93" stroke-width="18.75"></path>
            <path d="M290 96.66 L290 463.34" stroke-width="18.75"></path>
            <path d="M315 208.47 L315 351.52" stroke-width="18.75"></path>
            <path d="M340 80.16 L340 479.84" stroke-width="18.75"></path>
            <path d="M365 163.97 L365 396.03" stroke-width="18.75"></path>
            <path d="M390 119.72 L390 440.28" stroke-width="18.75"></path>
            <path d="M415 202.94 L415 357.06" stroke-width="18.75"></path>
            <path d="M440 117.12 L440 442.88" stroke-width="18.75"></path>
            <path d="M465 180.89 L465 379.11" stroke-width="18.75"></path>
            <path d="M490 153.62 L490 406.38" stroke-width="18.75"></path>
            <path d="M515 211.2 L515 348.8" stroke-width="18.75"></path>
            <path d="M540 220.96 L540 339.04" stroke-width="18.75"></path>
            <path d="M565 16.63 L565 543.38" stroke-width="18.75"></path>
            <path d="M590 80.9 L590 479.11" stroke-width="18.75"></path>
            <path d="M615 169.59 L615 390.41" stroke-width="18.75"></path>
            <path d="M640 121.93 L640 438.07" stroke-width="18.75"></path>
            <path d="M665 21.02 L665 538.98" stroke-width="18.75"></path>
            <path d="M690 60.05 L690 499.95" stroke-width="18.75"></path>
            <path d="M715 207.76 L715 352.24" stroke-width="18.75"></path>
            <path d="M740 136.33 L740 423.67" stroke-width="18.75"></path>
            <path d="M765 251.77 L765 308.23" stroke-width="18.75"></path>
            <path d="M790 118.53 L790 441.48" stroke-width="18.75"></path>
            <path d="M815 214.42 L815 345.58" stroke-width="18.75"></path>
            <path d="M840 123.13 L840 436.88" stroke-width="18.75"></path>
            <path d="M865 235.97 L865 324.02" stroke-width="18.75"></path>
            <path d="M890 25.75 L890 534.25" stroke-width="18.75"></path>
            <path d="M915 244.41 L915 315.6" stroke-width="18.75"></path>
            <path d="M940 192.18 L940 367.82" stroke-width="18.75"></path>
            <path d="M965 41.48 L965 518.52" stroke-width="18.75"></path>
            <path d="M990 243.84 L990 316.16" stroke-width="18.75"></path>
            <path d="M1015 103.35 L1015 456.65" stroke-width="18.75"></path>
            <path d="M1040 118.83 L1040 441.17" stroke-width="18.75"></path>
            <path d="M1065 210.58 L1065 349.42" stroke-width="18.75"></path>
        </g>
    </g>
    <defs>
        <mask id="SvgjsMask2256">
            <rect width="1080" height="560" fill="#ffffff"></rect>
        </mask>
        <linearGradient x1="130.03199999999998" y1="-129.976" x2="949.968" y2="689.976" gradientUnits="userSpaceOnUse" id="SvgjsLinearGradient2257">
            <stop stop-color="rgba(117, 110, 227, 1)" offset="0.37"></stop>
            <stop stop-color="rgba(62, 43, 210, 1)" offset="1"></stop>
        </linearGradient>
    </defs>
</svg>