<svg viewBox="0 0 700 650" fill="none" xmlns="http://www.w3.org/2000/svg">
    <path id="heartfill" d="M606.741 293.71C606.741 293.71 600.896 300.729 589.331 312.063C577.765 323.396 365.117 531.767 365.117 531.767C361.382 535.426 356.502 537.251 351.612 537.251C346.723 537.251 341.842 535.426 338.108 531.767C338.108 531.767 125.459 323.387 113.894 312.053C102.328 300.72 96.4834 293.701 96.4834 293.701C76.9911 270.95 65.1008 241.741 65.1008 209.697C65.1008 137.336 124.963 78.6758 198.806 78.6758C235.728 78.6758 269.154 93.3315 293.345 117.056L293.431 116.972L338.108 160.742C345.567 168.051 357.658 168.051 365.117 160.742L409.793 116.972L409.879 117.056C434.07 93.3315 467.497 78.6758 504.418 78.6758C578.262 78.6758 638.124 137.336 638.124 209.697C638.124 241.741 626.234 270.95 606.741 293.71Z" fill="#3e2bd2"/>
    

    <path d="M504.419 116.11C499.137 116.11 494.868 120.294 494.868 125.469C494.868 130.644 499.137 134.828 504.419 134.828C546.612 134.828 580.822 168.351 580.822 209.697C580.822 214.873 585.091 219.056 590.372 219.056C595.653 219.056 599.922 214.873 599.922 209.697C599.922 158.019 557.156 116.11 504.419 116.11Z" fill="black"/>
<path d="M649.94 224C651.093 181.02 635.267 137.669 602.467 104.867C539.087 41.4883 436.33 41.4883 372.95 104.867L350 127.818L327.05 104.867C263.67 41.4883 160.913 41.4883 97.534 104.867C34.1553 168.246 34.1553 271.003 97.534 334.383L350 586.846L413.117 523.73" stroke="black" stroke-width="66.6667" stroke-linecap="round" stroke-linejoin="round"/>
<path d="M250 346.223H338.89L405.557 257.333L472.223 435.11L538.89 346.223H650" stroke="black" stroke-width="66.6667" stroke-linecap="round" stroke-linejoin="round"/>

</svg>
